HIERARCHY
ROOT Hips
{
	OFFSET 0.000000 0.000000 0.000000
	CHANNELS 6 Xposition Yposition Zposition Xrotation Yrotation Zrotation
	JOINT LeftUpLeg_virtual
	{
		OFFSET 0.000000 0.000000 0.000000
		CHANNELS 3 Xrotation Yrotation Zrotation
		JOINT LeftUpLeg
		{
			OFFSET 15.427100 -6.655098 0.678600
			CHANNELS 3 Xrotation Yrotation Zrotation
			JOINT LeftLeg
			{
				OFFSET 4.081073 -39.591068 13.024000
				CHANNELS 3 Xrotation Yrotation Zrotation
				JOINT LeftFoot
				{
					OFFSET -4.081074 -37.707932 -15.979700
					CHANNELS 3 Xrotation Yrotation Zrotation
					JOINT LeftToeBase
					{
						OFFSET 5.346399 -15.068900 20.645000
						CHANNELS 3 Xrotation Yrotation Zrotation
						JOINT LeftToe_End
						{
							OFFSET 2.754700 0.931300 11.300900
							CHANNELS 3 Xrotation Yrotation Zrotation
							End Site
							{
								OFFSET 0 0 0
							}
						}
					}
				}
			}
		}
	}
	JOINT RightUpLeg_virtual
	{
		OFFSET 0.000000 0.000000 0.000000
		CHANNELS 3 Xrotation Yrotation Zrotation
		JOINT RightUpLeg
		{
			OFFSET -15.569500 -6.655098 0.678600
			CHANNELS 3 Xrotation Yrotation Zrotation
			JOINT RightLeg
			{
				OFFSET -4.081825 -39.591045 13.023800
				CHANNELS 3 Xrotation Yrotation Zrotation
				JOINT RightFoot
				{
					OFFSET 4.081824 -37.707954 -15.979600
					CHANNELS 3 Xrotation Yrotation Zrotation
					JOINT RightToeBase
					{
						OFFSET -5.346400 -15.068900 20.645000
						CHANNELS 3 Xrotation Yrotation Zrotation
						JOINT RightToe_End
						{
							OFFSET -2.754700 0.931300 11.300900
							CHANNELS 3 Xrotation Yrotation Zrotation
							End Site
							{
								OFFSET 0 0 0
							}
						}
					}
				}
			}
		}
	}
	JOINT Spine_virtual
	{
		OFFSET 0.000000 0.000000 0.000000
		CHANNELS 3 Xrotation Yrotation Zrotation
		JOINT Spine
		{
			OFFSET -0.279200 12.230698 -2.892100
			CHANNELS 3 Xrotation Yrotation Zrotation
			JOINT Spine1
			{
				OFFSET -0.232667 10.192268 -1.242267
				CHANNELS 3 Xrotation Yrotation Zrotation
				JOINT Spine1_split
				{
					OFFSET -0.232667 10.192268 -1.242267
					CHANNELS 3 Xrotation Yrotation Zrotation
					JOINT Spine2
					{
						OFFSET -0.232667 10.192268 -1.242267
						CHANNELS 3 Xrotation Yrotation Zrotation
						JOINT Neck_virtual
						{
							OFFSET 0.000000 0.000000 0.000000
							CHANNELS 3 Xrotation Yrotation Zrotation
							JOINT Neck
							{
								OFFSET -0.418800 17.814194 8.416900
								CHANNELS 3 Xrotation Yrotation Zrotation
								JOINT Head
								{
									OFFSET 0.000000 7.031097 3.806800
									CHANNELS 3 Xrotation Yrotation Zrotation
									JOINT HeadTop_End
									{
										OFFSET 0.000000 24.646606 12.978600
										CHANNELS 3 Xrotation Yrotation Zrotation
										End Site
										{
											OFFSET 0 0 0
										}
									}
								}
							}
						}
						JOINT LeftShoulder_virtual
						{
							OFFSET 0.000000 0.000000 0.000000
							CHANNELS 3 Xrotation Yrotation Zrotation
							JOINT LeftShoulder
							{
								OFFSET 8.476499 7.247704 -3.868750
								CHANNELS 3 Xrotation Yrotation Zrotation
								JOINT LeftShoulder_split
								{
									OFFSET 8.476499 7.247704 -3.868750
									CHANNELS 3 Xrotation Yrotation Zrotation
									JOINT LeftArm
									{
										OFFSET 9.308998 -2.777710 0.208600
										CHANNELS 3 Xrotation Yrotation Zrotation
										JOINT LeftForeArm
										{
											OFFSET 29.972298 0.000000 0.000000
											CHANNELS 3 Xrotation Yrotation Zrotation
											JOINT LeftHand
											{
												OFFSET 26.026505 0.000000 0.000000
												CHANNELS 3 Xrotation Yrotation Zrotation
												End Site
												{
													OFFSET 0 0 0
												}
											}
										}
									}
								}
							}
						}
						JOINT RightShoulder_virtual
						{
							OFFSET 0.000000 0.000000 0.000000
							CHANNELS 3 Xrotation Yrotation Zrotation
							JOINT RightShoulder
							{
								OFFSET -7.570500 7.247704 -3.868750
								CHANNELS 3 Xrotation Yrotation Zrotation
								JOINT RightShoulder_split
								{
									OFFSET -7.570500 7.247704 -3.868750
									CHANNELS 3 Xrotation Yrotation Zrotation
									JOINT RightArm
									{
										OFFSET -9.308998 -2.777710 0.208500
										CHANNELS 3 Xrotation Yrotation Zrotation
										JOINT RightForeArm
										{
											OFFSET -29.972300 0.000000 0.000000
											CHANNELS 3 Xrotation Yrotation Zrotation
											JOINT RightHand
											{
												OFFSET -26.026505 0.000000 0.000000
												CHANNELS 3 Xrotation Yrotation Zrotation
												End Site
												{
													OFFSET 0 0 0
												}
											}
										}
									}
								}
							}
						}
					}
				}
			}
		}
	}
}
MOTION
Frames: 11
Frame Time: 0.03333333
49.881348 74.847710 218.379730 0.000000 0.000000 0.000000 -2.082523 29.796113 -14.202184 -24.529865 -3.120171 -6.948144 64.553211 24.464464 -3.322595 18.865331 4.478319 4.128274 -60.616221 6.859707 -11.683925 0.000000 0.000000 0.000000 -2.687856 34.674056 -14.605620 -48.540679 22.840484 14.562165 27.835411 -12.636097 0.625518 8.266756 -11.036643 20.420550 3.391849 0.270289 -22.790133 0.000000 0.000000 0.000000 -5.304465 24.412537 -11.258430 -4.783665 -13.996122 5.393577 -0.669288 -6.949104 0.738468 0.108897 -0.318224 -0.146466 0.000000 0.000000 0.000000 -1.211741 -3.817142 2.927807 20.521109 3.839842 -0.594445 31.370325 23.991084 -47.002227 0.000000 0.000000 0.000000 -2.199477 -3.495113 2.164321 4.426910 -4.908658 -16.814886 11.996314 -15.568552 2.600445 -3.861111 7.392851 -47.531761 -5.189282 -55.915463 -0.483983 0.000000 0.000000 0.000000 -2.433379 -6.104273 -0.187211 3.066636 -18.835235 5.242985 13.769649 15.074680 5.853888 22.766824 36.324445 43.561307 18.171850 71.717307 -25.162087 0.000000 0.000000 0.000000 
54.761993 72.937180 229.839798 0.000000 0.000000 0.000000 -2.745398 31.439040 -13.607644 -45.237934 -3.738123 -7.836176 73.056024 21.425349 -0.248979 22.509355 -1.712212 1.726074 -49.080923 4.366837 -10.959911 0.000000 0.000000 0.000000 -1.791404 37.197238 -14.493521 -39.703982 22.358897 12.856228 40.567304 -16.195241 3.268133 -9.570646 -17.106670 9.191601 1.012120 -0.542220 -19.467726 0.000000 0.000000 0.000000 -7.570699 27.381890 -11.019389 -3.333067 -10.322503 4.892965 1.433621 -5.978625 0.644860 0.031022 -0.168097 -0.295828 0.000000 0.000000 0.000000 0.714629 -2.983906 3.131188 18.006148 2.902426 1.957960 20.398203 23.268966 -32.751659 0.000000 0.000000 0.000000 -0.632033 -2.355684 1.377289 4.616426 -1.131430 -17.908126 9.170106 -16.710102 1.429075 8.952552 0.936661 -52.306022 -3.448997 -41.733245 1.681658 0.000000 0.000000 0.000000 -0.599225 -4.819653 0.145198 2.126271 -19.905282 6.641983 11.388856 14.243898 7.896595 2.948003 44.224225 53.735885 16.298942 64.452083 -24.167281 0.000000 0.000000 0.000000 
58.570686 71.989616 238.653427 0.000000 0.000000 0.000000 -2.619540 29.922912 -12.961013 -62.736858 -2.821377 -9.484559 78.149180 20.190680 2.724178 22.983197 -5.767427 4.069612 -30.733041 1.453853 -10.261278 0.000000 0.000000 0.000000 0.303975 37.909975 -14.068277 -31.964401 21.912627 10.630967 50.056288 -16.500231 5.186408 -26.023902 -17.260364 2.733989 0.515918 -0.699041 -17.483893 0.000000 0.000000 0.000000 -9.097031 28.272284 -10.955338 -2.288693 -6.411326 3.928307 3.710032 -4.711841 0.425078 0.015901 0.135749 -0.352596 0.000000 0.000000 0.000000 2.678218 -1.741982 2.800315 15.639321 1.272913 4.115060 11.765284 19.044483 -19.025547 0.000000 0.000000 0.000000 1.097934 -1.028951 0.516092 4.756463 2.562501 -17.922130 6.970612 -17.643212 0.582836 19.120671 -5.006525 -54.270081 -3.549351 -32.963313 2.457714 0.000000 0.000000 0.000000 1.546523 -3.103928 0.228604 0.911232 -20.506847 7.585825 10.274007 12.003713 8.772102 -15.698116 45.468460 64.533499 18.742073 62.302663 -26.066275 0.000000 0.000000 0.000000 
61.375057 71.976883 244.967804 0.000000 0.000000 0.000000 -1.134232 26.532447 -13.045072 -73.877949 -2.490200 -10.666044 80.314992 20.475341 5.002200 21.864662 -7.686514 8.281580 -13.533143 -0.937903 -9.138540 0.000000 0.000000 0.000000 2.609323 36.161474 -14.182373 -27.609984 21.647388 8.364881 53.778498 -13.167154 4.923576 -34.305783 -14.783618 4.966209 3.110395 -0.347472 -16.651894 0.000000 0.000000 0.000000 -8.757660 26.938121 -11.939916 -2.012773 -2.672394 3.075607 5.759619 -3.300266 0.200677 0.032914 0.551938 -0.284652 0.000000 0.000000 0.000000 4.567386 -0.294224 2.132511 13.795877 -0.866092 5.733787 6.140064 13.289487 -7.655483 0.000000 0.000000 0.000000 2.754690 0.339920 -0.228838 4.620848 5.395744 -17.047348 5.587279 -18.379983 0.740815 27.072054 -8.077919 -54.444479 -4.267371 -30.639996 2.511611 0.000000 0.000000 0.000000 3.661744 -1.195772 0.102177 -0.396435 -20.219173 8.034836 9.349112 8.477565 9.189463 -25.707468 42.331962 69.958329 22.224821 63.055719 -27.900119 0.000000 0.000000 0.000000 
63.445374 72.425499 249.742859 0.000000 0.000000 0.000000 1.658370 22.777291 -14.306186 -77.439189 -2.849115 -10.504908 80.258411 21.974088 5.986027 18.791664 -8.081821 13.195337 -5.452597 -2.465107 -6.628534 0.000000 0.000000 0.000000 4.704000 32.008807 -15.146749 -25.902616 21.445705 6.561756 52.914432 -7.447263 3.291783 -36.442990 -11.899091 11.791495 7.588563 0.187095 -16.487938 0.000000 0.000000 0.000000 -6.743254 23.918192 -13.910481 -2.506503 0.521070 2.852915 7.166423 -1.921477 0.119473 -0.034649 0.797694 -0.216044 0.000000 0.000000 0.000000 6.249334 1.080220 1.465299 12.481976 -2.969824 6.804753 2.104026 7.600323 0.972938 0.000000 0.000000 0.000000 4.053762 1.551316 -0.766313 4.120036 6.822273 -15.736204 5.038546 -18.770495 1.112993 32.846004 -8.658199 -54.268513 -4.763813 -33.132995 1.999690 0.000000 0.000000 0.000000 5.503263 0.572754 -0.101840 -1.710683 -18.663584 8.091670 8.887391 5.578635 8.010508 -27.367694 37.324839 70.119706 24.104979 64.293862 -27.874538 0.000000 0.000000 0.000000 
64.846504 72.689331 252.145279 0.000000 0.000000 0.000000 4.535493 19.565727 -16.302941 -76.211182 -4.400114 -8.832590 80.481137 23.489576 5.992653 15.713403 -8.553371 15.546776 -8.282501 -3.232601 -3.807811 0.000000 0.000000 0.000000 6.500031 27.539396 -16.698250 -24.865369 20.851873 5.834658 50.134388 -1.505975 1.680815 -36.769767 -9.319598 18.030026 11.274943 0.850743 -16.619937 0.000000 0.000000 0.000000 -3.885854 20.617071 -16.095117 -3.474654 2.937498 3.311448 7.864474 -0.781833 0.241240 0.064122 0.935631 -0.104278 0.000000 0.000000 0.000000 7.594546 2.174227 1.059109 11.451570 -4.882945 7.457148 -1.590495 2.989096 6.467561 0.000000 0.000000 0.000000 4.913401 2.442366 -1.031608 3.414256 6.915808 -14.643560 4.264511 -18.195125 1.104684 37.116037 -8.042806 -54.645140 -4.913406 -37.162202 0.963031 0.000000 0.000000 0.000000 6.846137 1.933288 -0.278537 -2.907304 -15.819446 7.885152 8.037247 3.969869 5.747068 -23.970873 31.892301 67.649008 23.112365 65.124051 -25.381342 0.000000 0.000000 0.000000 
65.644768 72.363060 253.020370 0.000000 0.000000 0.000000 6.347737 18.317213 -18.303707 -72.289691 -6.295626 -5.956842 81.699957 24.003272 4.982862 12.313474 -9.675458 15.788033 -19.697793 -4.195213 -0.618228 0.000000 0.000000 0.000000 7.102452 24.385896 -18.518099 -24.357974 18.866830 6.077695 49.020995 2.529141 1.087027 -36.512152 -7.834974 20.765162 12.328207 1.646980 -16.582723 0.000000 0.000000 0.000000 -0.864366 18.699830 -17.901420 -4.754058 4.382208 4.066658 7.968158 0.039846 0.535365 0.169449 0.824550 -0.023129 0.000000 0.000000 0.000000 8.546055 2.907393 1.057690 10.511760 -6.392106 7.723376 -5.649379 -0.021325 8.782244 0.000000 0.000000 0.000000 5.378267 2.952276 -1.029561 2.598336 6.098505 -13.902970 3.592747 -16.420458 1.249847 39.660211 -7.171028 -55.992675 -4.418743 -39.279598 -0.070710 0.000000 0.000000 0.000000 7.670074 2.750962 -0.291279 -3.827974 -12.010613 7.557104 6.347937 3.415250 3.315429 -18.356036 26.992194 64.724635 20.041334 65.696052 -21.785947 0.000000 0.000000 0.000000 
66.076706 71.625328 252.830124 0.000000 0.000000 0.000000 6.850127 18.916369 -19.559218 -68.863060 -7.906640 -2.293339 84.205734 22.694803 3.337250 9.545015 -11.601721 14.750299 -31.713248 -5.391977 1.546264 0.000000 0.000000 0.000000 6.379791 23.764130 -19.681385 -24.396259 15.213188 6.807049 51.027469 4.402754 1.154825 -35.341916 -7.746988 20.490945 9.945601 2.686183 -16.048477 0.000000 0.000000 0.000000 1.482154 18.822316 -18.955117 -5.981432 4.792182 4.645870 7.725759 0.568790 0.898889 0.309669 0.429661 -0.015189 0.000000 0.000000 0.000000 9.169248 3.294836 1.434512 9.625989 -7.295133 7.715965 -9.823199 -1.539452 8.394196 0.000000 0.000000 0.000000 5.523488 3.103635 -0.812361 1.800732 5.002415 -13.428073 2.940432 -13.902844 1.593626 40.350169 -6.951617 -58.281041 -3.094561 -38.687489 -0.515778 0.000000 0.000000 0.000000 8.107083 2.993809 -0.121691 -4.448068 -8.004739 7.139245 4.870703 3.622923 0.642761 -13.050028 22.816749 62.633873 17.803470 67.556117 -20.009522 0.000000 0.000000 0.000000 
65.945656 70.556602 251.902115 0.000000 0.000000 0.000000 6.303563 21.625337 -19.875987 -67.994485 -9.336477 1.145914 87.201811 18.732011 2.286316 9.753301 -14.393468 11.789201 -39.915858 -6.156029 2.685526 0.000000 0.000000 0.000000 5.325539 26.482617 -19.820490 -24.888730 11.057883 6.739662 54.935580 5.624005 1.057276 -33.953885 -8.316256 18.860615 4.878291 3.967534 -15.203463 0.000000 0.000000 0.000000 2.789457 21.061346 -19.287437 -6.620583 4.338236 4.704869 7.468533 0.786799 1.186605 0.301083 0.039564 0.004643 0.000000 0.000000 0.000000 9.554798 3.419866 1.954905 8.998079 -7.726232 7.627798 -13.111577 -1.983499 6.019145 0.000000 0.000000 0.000000 5.618669 2.941740 -0.476069 1.168063 4.137548 -12.843967 2.803470 -11.257992 2.527011 39.875850 -7.411291 -61.313816 -1.233483 -36.500049 -0.283127 0.000000 0.000000 0.000000 8.189108 2.787208 0.109694 -4.848792 -4.448335 6.801826 4.496016 3.424384 -1.597921 -9.404695 19.859451 62.040801 18.030349 70.453811 -21.474294 0.000000 0.000000 0.000000 
65.618439 69.710480 251.345047 0.000000 0.000000 0.000000 5.540566 24.979154 -19.234153 -68.955097 -9.414338 3.671860 89.097092 14.233592 2.106674 11.815462 -17.108398 8.735633 -42.728314 -6.408200 3.524586 0.000000 0.000000 0.000000 4.757561 30.537810 -19.069557 -25.399959 7.706880 5.265700 58.671728 7.147573 0.296559 -33.563512 -8.493473 16.590389 0.368613 5.110000 -14.280901 0.000000 0.000000 0.000000 3.808584 24.613446 -19.073524 -6.694644 3.157138 4.390637 7.083307 0.764543 1.398169 0.049427 -0.106120 -0.062168 0.000000 0.000000 0.000000 9.660018 3.311906 2.368285 8.908635 -7.807486 7.636220 -14.897969 -2.217448 2.590286 0.000000 0.000000 0.000000 5.712875 2.576823 -0.089718 0.806394 3.605419 -11.738357 4.117371 -8.951134 3.458606 37.897848 -8.796008 -64.658102 0.862006 -33.541672 0.405078 0.000000 0.000000 0.000000 8.112467 2.387804 0.270918 -5.268459 -1.521269 6.737936 5.785827 2.629912 -3.161628 -7.935777 18.160448 62.709845 21.307299 72.598149 -26.382695 0.000000 0.000000 0.000000 
65.290718 69.289177 250.481918 0.000000 0.000000 0.000000 5.064481 28.181453 -17.878587 -71.356994 -7.858900 4.689995 90.100085 11.638214 1.995002 14.044117 -19.052381 7.532106 -39.760730 -5.970282 3.489266 0.000000 0.000000 0.000000 4.636046 34.146547 -17.839015 -24.846102 5.497786 2.891768 60.769989 8.668243 -1.049502 -34.093425 -8.114867 13.849480 -1.328360 6.103508 -13.846673 0.000000 0.000000 0.000000 4.042573 28.027734 -18.329970 -6.583491 1.446162 4.010834 6.575849 0.578690 1.516392 -0.114744 -0.001667 -0.184610 0.000000 0.000000 0.000000 9.565112 3.031623 2.543162 9.303986 -7.755410 7.908354 -15.085038 -2.979211 -1.203910 0.000000 0.000000 0.000000 5.792271 2.236600 0.248464 0.746226 3.380422 -10.139978 5.908987 -7.302094 3.680499 35.251375 -10.706368 -67.975491 2.534394 -30.946931 1.191093 0.000000 0.000000 0.000000 8.107207 1.966582 0.251621 -5.812949 0.634164 7.170613 8.313787 2.051400 -4.840670 -8.351693 17.178038 64.359090 25.237108 72.420468 -32.038751 0.000000 0.000000 0.000000 
